<svg width="364" height="310" fill="none" xmlns="http://www.w3.org/2000/svg"><path d="M208.66 234.01c0-38.1 34.64-69 77.33-69 40.8 0 74.22 28.19 77.13 63.93.54-3.87.81-7.79.81-11.77 0-46.73-38.83-85.31-89.24-91.53a83.48 83.48 0 0 0 7.1-33.75c0-47.7-40.45-86.94-92.42-91.89 36.34 5.68 63.94 33.93 63.94 67.98 0 38.1-34.64 69-77.33 69-42.7 0-77.33-30.9-77.33-69 0-30.07 21.51-55.6 51.62-65.08-43.57 10.87-75.5 46.6-75.5 88.99 0 12.25 2.7 23.97 7.57 34.72C38.7 134.44 5.01 166.75 0 206.72c10.96-26.2 39.3-44.86 72.46-44.86 42.7 0 77.33 30.91 77.33 69.01 0 38.1-34.64 69-77.33 69a84.6 84.6 0 0 1-21.24-2.65 112.7 112.7 0 0 0 51.69 12.32c31.53 0 59.74-12.56 78.75-32.42 19.01 19.8 47.23 32.42 78.76 32.42 15.35 0 29.9-2.96 42.96-8.33a86.84 86.84 0 0 1-17.39 1.75c-42.7.06-77.33-30.85-77.33-68.95Zm-27-31.27c-14.88 0-27-10.81-27-24.1 0-13.27 12.12-24.08 27-24.08 14.89 0 27 10.8 27 24.09 0 13.28-12.05 24.09-27 24.09Z" fill="#FCFCFF"/><path d="M210.62 104.5c-34.1-11.28-74.56-1.56-97.7 23.5-11.9 12.85-19.01 28.37-20.43 45.03-1.42 16 3.04 32.42 12.31 46.19 19.22 28.5 57.04 43.1 93.5 36.7 35.05-6.15 63.87-32.6 69.42-64.17.74-4.35 1.22-8.7 1.29-13.1-.27-33.09-23.75-62.67-58.4-74.14Zm40.8 65.4c-.07-.61 0-.3 0 0Zm-43.1-50.12c1.28.42.34.12 0 0Zm-55.55 0c-.34.12-1.29.42 0 0ZM124 139.46c.07 0 .07-.06 0 0 .48-.54.2-.24 0 0Zm-14.34 47.76c0 .42.07.9 0 0Zm43.03 50.23c-.34-.12-1.01-.42 0 0Zm18.07 4.4c-.34 0-.68-.05 0 0Zm19.55 0c.74-.05.34 0 0 0Zm56.22-38.45c-.54 1.15-.2.3 0 0Zm5.28-19.5c-.07.9-.2 1.87-.27 2.78 0 .12-.07.42-.07.72l-.2 1.03a60.4 60.4 0 0 1-2.77 10.2c-.61 1.57-1.22 3.14-1.9 4.71 0 0 0 .06-.07.06-.2.42-.4.78-.6 1.15-.41.78-.82 1.63-1.3 2.41a68.15 68.15 0 0 1-6.08 9.06c-.47.6-.95 1.2-1.49 1.75-.2.18-.81.9-1.01 1.15a69 69 0 0 1-7.92 7.37c-.74.6-1.49 1.14-2.23 1.74l-1.15.85a.93.93 0 0 0-.27.18l-.07.06a76.7 76.7 0 0 1-9.6 5.55c-1.63.79-3.26 1.57-4.95 2.24l-1.35.54c-.07 0-.07.06-.14.06-1.01.36-2.03.73-3.04 1.03a78.38 78.38 0 0 1-11.3 2.78c-.88.18-1.76.3-2.64.42l-1.28.18h-.27c-2.1.18-4.13.36-6.23.42-4.2.12-8.39-.06-12.52-.42-.06 0-.2 0-.33-.06-.27-.06-.55-.06-.81-.12-1.02-.12-2.03-.3-3.05-.49-1.96-.36-3.92-.78-5.89-1.26-1.82-.49-3.58-.97-5.34-1.51-.95-.3-1.9-.6-2.78-.97 0 0-.06 0-.13-.06-.54-.24-1.08-.42-1.62-.66a83.55 83.55 0 0 1-10.02-4.95c-1.49-.9-2.97-1.81-4.4-2.78-.06 0-.06-.06-.13-.12-.4-.3-.75-.54-1.15-.85-.88-.6-1.7-1.26-2.5-1.93a70.64 70.64 0 0 1-7.85-7.3c-.2-.25-.88-.9-1.02-1.15-.47-.6-1.01-1.2-1.49-1.75a69.27 69.27 0 0 1-3.24-4.4 67.34 67.34 0 0 1-2.84-4.66c-.41-.66-.75-1.39-1.16-2.11l-.6-1.2c-.07-.13-.07-.13-.07-.19s-.07-.12-.07-.18a76.15 76.15 0 0 1-3.58-9.9c-.48-1.63-.82-3.32-1.16-5.01l-.2-1.27v-.12c-.13-.9-.2-1.81-.27-2.78a62.12 62.12 0 0 1 0-11.23c.07-.9.2-1.81.27-2.78 0 0 0-.12.07-.3a53.73 53.73 0 0 1 1.42-6.46c.95-3.32 2.1-6.58 3.59-9.78.2-.36.33-.72.54-1.09.4-.78.8-1.63 1.28-2.41a67.6 67.6 0 0 1 5.89-8.81l1.62-2c.4-.48.88-.96 1.36-1.45a77.76 77.76 0 0 1 7.91-7.3c.61-.48 1.29-1.03 1.96-1.51.2-.18 1.36-.97 1.56-1.15 1.42-.96 2.9-1.87 4.4-2.78a89.35 89.35 0 0 1 10.35-5.13c.4-.18.88-.36 1.28-.54 0 0 .07 0 .07-.06.81-.3 1.63-.54 2.44-.85a89.1 89.1 0 0 1 14.27-3.32c.34-.06.68-.12 1.02-.12.2 0 .6-.06.95-.12 4.06-.42 8.11-.54 12.17-.42a61.2 61.2 0 0 1 6.7.54c.27.06.61.06.75.12l3.38.55a86.48 86.48 0 0 1 13.67 3.68s.06 0 .06.06c.48.18.88.36 1.29.54 1.83.73 3.59 1.51 5.28 2.42a74.74 74.74 0 0 1 9.47 5.5c.2.11 1.01.72 1.29.9.74.54 1.48 1.15 2.23 1.69a76.93 76.93 0 0 1 4.26 3.62c1.29 1.2 2.5 2.42 3.72 3.68.14.18 1.08 1.21 1.29 1.4.47.6.94 1.14 1.42 1.74a68 68 0 0 1 7.37 11.47c.14.3.27.6.48.91 0 .06.06.06.06.12a60.15 60.15 0 0 1 4.87 15.46c.07.24.07.48.14.72 0 .12.07.24.07.3.13.9.2 1.81.27 2.78.13 1.87.2 3.74.27 5.62-.14 2.05-.2 3.8-.34 5.55Z" fill="#FCFCFF"/></svg>